<svg width="299" height="188" viewBox="0 0 299 188" fill="none" xmlns="http://www.w3.org/2000/svg">
<rect x="0.5" y="2.50049" width="298" height="185" rx="10.5" fill="url(#paint0_linear_143_2)" stroke="#F0F0F0"/>
<mask id="mask0_143_2" style="mask-type:alpha" maskUnits="userSpaceOnUse" x="1" y="-1" width="297" height="188">
<rect x="1.5" y="-0.5" width="296" height="187" rx="10.5" fill="url(#paint1_linear_143_2)" stroke="#F0F0F0"/>
</mask>
<g mask="url(#mask0_143_2)">
<path opacity="0.5" d="M166.726 141.356C100.43 145.487 29.2854 163.73 2 172.336V187H298C281.865 170.064 233.022 137.225 166.726 141.356Z" fill="url(#paint2_linear_143_2)"/>
</g>
<path d="M46.228 64.576V66.22H42.796V67.996H45.364V69.592H42.796V73H40.744V64.576H46.228ZM49.3585 64.576V73H47.3065V64.576H49.3585ZM55.1416 73L53.3896 69.82H52.8976V73H50.8456V64.576H54.2896C54.9536 64.576 55.5176 64.692 55.9816 64.924C56.4536 65.156 56.8056 65.476 57.0376 65.884C57.2696 66.284 57.3856 66.732 57.3856 67.228C57.3856 67.788 57.2256 68.288 56.9056 68.728C56.5936 69.168 56.1296 69.48 55.5136 69.664L57.4576 73H55.1416ZM52.8976 68.368H54.1696C54.5456 68.368 54.8256 68.276 55.0096 68.092C55.2016 67.908 55.2976 67.648 55.2976 67.312C55.2976 66.992 55.2016 66.74 55.0096 66.556C54.8256 66.372 54.5456 66.28 54.1696 66.28H52.8976V68.368ZM61.7217 73.084C61.1057 73.084 60.5537 72.984 60.0657 72.784C59.5777 72.584 59.1857 72.288 58.8897 71.896C58.6017 71.504 58.4497 71.032 58.4337 70.48H60.6177C60.6497 70.792 60.7577 71.032 60.9417 71.2C61.1257 71.36 61.3657 71.44 61.6617 71.44C61.9657 71.44 62.2057 71.372 62.3817 71.236C62.5577 71.092 62.6457 70.896 62.6457 70.648C62.6457 70.44 62.5737 70.268 62.4297 70.132C62.2937 69.996 62.1217 69.884 61.9137 69.796C61.7137 69.708 61.4257 69.608 61.0497 69.496C60.5057 69.328 60.0617 69.16 59.7177 68.992C59.3737 68.824 59.0777 68.576 58.8297 68.248C58.5817 67.92 58.4577 67.492 58.4577 66.964C58.4577 66.18 58.7417 65.568 59.3097 65.128C59.8777 64.68 60.6177 64.456 61.5297 64.456C62.4577 64.456 63.2057 64.68 63.7737 65.128C64.3417 65.568 64.6457 66.184 64.6857 66.976H62.4657C62.4497 66.704 62.3497 66.492 62.1657 66.34C61.9817 66.18 61.7457 66.1 61.4577 66.1C61.2097 66.1 61.0097 66.168 60.8577 66.304C60.7057 66.432 60.6297 66.62 60.6297 66.868C60.6297 67.14 60.7577 67.352 61.0137 67.504C61.2697 67.656 61.6697 67.82 62.2137 67.996C62.7577 68.18 63.1977 68.356 63.5337 68.524C63.8777 68.692 64.1737 68.936 64.4217 69.256C64.6697 69.576 64.7937 69.988 64.7937 70.492C64.7937 70.972 64.6697 71.408 64.4217 71.8C64.1817 72.192 63.8297 72.504 63.3657 72.736C62.9017 72.968 62.3537 73.084 61.7217 73.084ZM72.1165 64.576V66.22H69.8845V73H67.8325V66.22H65.6005V64.576H72.1165ZM80.7893 68.68C81.2773 68.784 81.6693 69.028 81.9653 69.412C82.2613 69.788 82.4093 70.22 82.4093 70.708C82.4093 71.412 82.1613 71.972 81.6653 72.388C81.1773 72.796 80.4933 73 79.6133 73H75.6893V64.576H79.4813C80.3373 64.576 81.0053 64.772 81.4853 65.164C81.9733 65.556 82.2173 66.088 82.2173 66.76C82.2173 67.256 82.0853 67.668 81.8213 67.996C81.5653 68.324 81.2213 68.552 80.7893 68.68ZM77.7413 67.984H79.0853C79.4213 67.984 79.6773 67.912 79.8533 67.768C80.0373 67.616 80.1293 67.396 80.1293 67.108C80.1293 66.82 80.0373 66.6 79.8533 66.448C79.6773 66.296 79.4213 66.22 79.0853 66.22H77.7413V67.984ZM79.2533 71.344C79.5973 71.344 79.8613 71.268 80.0453 71.116C80.2373 70.956 80.3333 70.728 80.3333 70.432C80.3333 70.136 80.2333 69.904 80.0333 69.736C79.8413 69.568 79.5733 69.484 79.2293 69.484H77.7413V71.344H79.2533ZM88.8435 71.512H85.6995L85.1955 73H83.0475L86.0955 64.576H88.4715L91.5195 73H89.3475L88.8435 71.512ZM88.3155 69.928L87.2715 66.844L86.2395 69.928H88.3155ZM99.9831 73H97.9311L94.4991 67.804V73H92.4471V64.576H94.4991L97.9311 69.796V64.576H99.9831V73ZM106.355 73L103.523 69.28V73H101.471V64.576H103.523V68.272L106.331 64.576H108.743L105.479 68.704L108.863 73H106.355ZM119.917 73H117.865L114.433 67.804V73H112.381V64.576H114.433L117.865 69.796V64.576H119.917V73ZM123.456 64.576V73H121.404V64.576H123.456ZM130.535 67.24C130.383 66.96 130.163 66.748 129.875 66.604C129.595 66.452 129.263 66.376 128.879 66.376C128.215 66.376 127.683 66.596 127.283 67.036C126.883 67.468 126.683 68.048 126.683 68.776C126.683 69.552 126.891 70.16 127.307 70.6C127.731 71.032 128.311 71.248 129.047 71.248C129.551 71.248 129.975 71.12 130.319 70.864C130.671 70.608 130.927 70.24 131.087 69.76H128.483V68.248H132.947V70.156C132.795 70.668 132.535 71.144 132.167 71.584C131.807 72.024 131.347 72.38 130.787 72.652C130.227 72.924 129.595 73.06 128.891 73.06C128.059 73.06 127.315 72.88 126.659 72.52C126.011 72.152 125.503 71.644 125.135 70.996C124.775 70.348 124.595 69.608 124.595 68.776C124.595 67.944 124.775 67.204 125.135 66.556C125.503 65.9 126.011 65.392 126.659 65.032C127.307 64.664 128.047 64.48 128.879 64.48C129.887 64.48 130.735 64.724 131.423 65.212C132.119 65.7 132.579 66.376 132.803 67.24H130.535ZM136.136 66.22V67.924H138.884V69.508H136.136V71.356H139.244V73H134.084V64.576H139.244V66.22H136.136ZM144.872 73L143.12 69.82H142.628V73H140.576V64.576H144.02C144.684 64.576 145.248 64.692 145.712 64.924C146.184 65.156 146.536 65.476 146.768 65.884C147 66.284 147.116 66.732 147.116 67.228C147.116 67.788 146.956 68.288 146.636 68.728C146.324 69.168 145.86 69.48 145.244 69.664L147.188 73H144.872ZM142.628 68.368H143.9C144.276 68.368 144.556 68.276 144.74 68.092C144.932 67.908 145.028 67.648 145.028 67.312C145.028 66.992 144.932 66.74 144.74 66.556C144.556 66.372 144.276 66.28 143.9 66.28H142.628V68.368ZM150.456 64.576V73H148.404V64.576H150.456ZM157.187 71.512H154.043L153.539 73H151.391L154.439 64.576H156.815L159.863 73H157.691L157.187 71.512ZM156.659 69.928L155.615 66.844L154.583 69.928H156.659Z" fill="white"/>
<path d="M40.588 106.44V104.784L44.38 99.36H46.672V104.664H47.656V106.44H46.672V108H44.62V106.44H40.588ZM44.764 101.616L42.748 104.664H44.764V101.616ZM48.7331 101.712C48.7651 100.856 49.0451 100.196 49.5731 99.732C50.1011 99.268 50.8171 99.036 51.7211 99.036C52.3211 99.036 52.8331 99.14 53.2571 99.348C53.6891 99.556 54.0131 99.84 54.2291 100.2C54.4531 100.56 54.5651 100.964 54.5651 101.412C54.5651 101.94 54.4331 102.372 54.1691 102.708C53.9051 103.036 53.5971 103.26 53.2451 103.38V103.428C53.7011 103.58 54.0611 103.832 54.3251 104.184C54.5891 104.536 54.7211 104.988 54.7211 105.54C54.7211 106.036 54.6051 106.476 54.3731 106.86C54.1491 107.236 53.8171 107.532 53.3771 107.748C52.9451 107.964 52.4291 108.072 51.8291 108.072C50.8691 108.072 50.1011 107.836 49.5251 107.364C48.9571 106.892 48.6571 106.18 48.6251 105.228H50.6171C50.6251 105.58 50.7251 105.86 50.9171 106.068C51.1091 106.268 51.3891 106.368 51.7571 106.368C52.0691 106.368 52.3091 106.28 52.4771 106.104C52.6531 105.92 52.7411 105.68 52.7411 105.384C52.7411 105 52.6171 104.724 52.3691 104.556C52.1291 104.38 51.7411 104.292 51.2051 104.292H50.8211V102.624H51.2051C51.6131 102.624 51.9411 102.556 52.1891 102.42C52.4451 102.276 52.5731 102.024 52.5731 101.664C52.5731 101.376 52.4931 101.152 52.3331 100.992C52.1731 100.832 51.9531 100.752 51.6731 100.752C51.3691 100.752 51.1411 100.844 50.9891 101.028C50.8451 101.212 50.7611 101.44 50.7371 101.712H48.7331ZM57.3667 103.296C56.6147 102.896 56.2387 102.268 56.2387 101.412C56.2387 100.98 56.3507 100.588 56.5747 100.236C56.7987 99.876 57.1387 99.592 57.5947 99.384C58.0507 99.168 58.6107 99.06 59.2747 99.06C59.9387 99.06 60.4947 99.168 60.9427 99.384C61.3987 99.592 61.7387 99.876 61.9627 100.236C62.1867 100.588 62.2987 100.98 62.2987 101.412C62.2987 101.844 62.1947 102.22 61.9867 102.54C61.7867 102.86 61.5147 103.112 61.1707 103.296C61.6027 103.504 61.9347 103.792 62.1667 104.16C62.3987 104.52 62.5147 104.944 62.5147 105.432C62.5147 106 62.3707 106.492 62.0827 106.908C61.7947 107.316 61.4027 107.628 60.9067 107.844C60.4187 108.06 59.8747 108.168 59.2747 108.168C58.6747 108.168 58.1267 108.06 57.6307 107.844C57.1427 107.628 56.7547 107.316 56.4667 106.908C56.1787 106.492 56.0347 106 56.0347 105.432C56.0347 104.936 56.1507 104.508 56.3827 104.148C56.6147 103.78 56.9427 103.496 57.3667 103.296ZM60.3067 101.724C60.3067 101.396 60.2107 101.144 60.0187 100.968C59.8347 100.784 59.5867 100.692 59.2747 100.692C58.9627 100.692 58.7107 100.784 58.5187 100.968C58.3347 101.152 58.2427 101.408 58.2427 101.736C58.2427 102.048 58.3387 102.296 58.5307 102.48C58.7227 102.656 58.9707 102.744 59.2747 102.744C59.5787 102.744 59.8267 102.652 60.0187 102.468C60.2107 102.284 60.3067 102.036 60.3067 101.724ZM59.2747 104.184C58.8987 104.184 58.5947 104.288 58.3627 104.496C58.1307 104.696 58.0147 104.976 58.0147 105.336C58.0147 105.672 58.1267 105.948 58.3507 106.164C58.5827 106.38 58.8907 106.488 59.2747 106.488C59.6587 106.488 59.9587 106.38 60.1747 106.164C60.3987 105.948 60.5107 105.672 60.5107 105.336C60.5107 104.984 60.3947 104.704 60.1627 104.496C59.9387 104.288 59.6427 104.184 59.2747 104.184ZM68.04 101.604C67.976 101.308 67.864 101.088 67.704 100.944C67.544 100.792 67.316 100.716 67.02 100.716C66.564 100.716 66.236 100.916 66.036 101.316C65.836 101.708 65.732 102.332 65.724 103.188C65.9 102.908 66.152 102.688 66.48 102.528C66.816 102.368 67.184 102.288 67.584 102.288C68.368 102.288 68.996 102.536 69.468 103.032C69.948 103.528 70.188 104.22 70.188 105.108C70.188 105.692 70.068 106.204 69.828 106.644C69.596 107.084 69.252 107.428 68.796 107.676C68.348 107.924 67.816 108.048 67.2 108.048C65.968 108.048 65.112 107.664 64.632 106.896C64.152 106.12 63.912 105.008 63.912 103.56C63.912 102.04 64.164 100.912 64.668 100.176C65.18 99.432 65.996 99.06 67.116 99.06C67.716 99.06 68.22 99.18 68.628 99.42C69.044 99.652 69.356 99.96 69.564 100.344C69.78 100.728 69.908 101.148 69.948 101.604H68.04ZM67.092 103.908C66.748 103.908 66.46 104.012 66.228 104.22C66.004 104.42 65.892 104.708 65.892 105.084C65.892 105.468 65.996 105.768 66.204 105.984C66.42 106.2 66.724 106.308 67.116 106.308C67.468 106.308 67.744 106.204 67.944 105.996C68.152 105.78 68.256 105.488 68.256 105.12C68.256 104.744 68.156 104.448 67.956 104.232C67.756 104.016 67.468 103.908 67.092 103.908ZM79.2556 108L77.5396 105.42L76.0276 108H73.6996L76.3996 103.716L73.6396 99.576H76.0276L77.7196 102.12L79.2076 99.576H81.5356L78.8596 103.824L81.6436 108H79.2556ZM87.8337 108L86.1177 105.42L84.6057 108H82.2777L84.9777 103.716L82.2177 99.576H84.6057L86.2977 102.12L87.7857 99.576H90.1137L87.4377 103.824L90.2217 108H87.8337ZM96.4118 108L94.6958 105.42L93.1838 108H90.8558L93.5558 103.716L90.7958 99.576H93.1838L94.8758 102.12L96.3638 99.576H98.6918L96.0158 103.824L98.7998 108H96.4118ZM104.99 108L103.274 105.42L101.762 108H99.4339L102.134 103.716L99.3739 99.576H101.762L103.454 102.12L104.942 99.576H107.27L104.594 103.824L107.378 108H104.99ZM116.111 108L114.395 105.42L112.883 108H110.555L113.255 103.716L110.495 99.576H112.883L114.575 102.12L116.063 99.576H118.391L115.715 103.824L118.499 108H116.111ZM124.689 108L122.973 105.42L121.461 108H119.133L121.833 103.716L119.073 99.576H121.461L123.153 102.12L124.641 99.576H126.969L124.293 103.824L127.077 108H124.689ZM133.267 108L131.551 105.42L130.039 108H127.711L130.411 103.716L127.651 99.576H130.039L131.731 102.12L133.219 99.576H135.547L132.871 103.824L135.655 108H133.267ZM141.845 108L140.129 105.42L138.617 108H136.289L138.989 103.716L136.229 99.576H138.617L140.309 102.12L141.797 99.576H144.125L141.449 103.824L144.233 108H141.845ZM152.967 108L151.251 105.42L149.739 108H147.411L150.111 103.716L147.351 99.576H149.739L151.431 102.12L152.919 99.576H155.247L152.571 103.824L155.355 108H152.967ZM161.545 108L159.829 105.42L158.317 108H155.989L158.689 103.716L155.929 99.576H158.317L160.009 102.12L161.497 99.576H163.825L161.149 103.824L163.933 108H161.545ZM170.123 108L168.407 105.42L166.895 108H164.567L167.267 103.716L164.507 99.576H166.895L168.587 102.12L170.075 99.576H172.403L169.727 103.824L172.511 108H170.123Z" fill="white"/>
<path d="M45.328 163L43.336 159.58H42.016V163H40.924V154.636H43.624C44.256 154.636 44.788 154.744 45.22 154.96C45.66 155.176 45.988 155.468 46.204 155.836C46.42 156.204 46.528 156.624 46.528 157.096C46.528 157.672 46.36 158.18 46.024 158.62C45.696 159.06 45.2 159.352 44.536 159.496L46.636 163H45.328ZM42.016 158.704H43.624C44.216 158.704 44.66 158.56 44.956 158.272C45.252 157.976 45.4 157.584 45.4 157.096C45.4 156.6 45.252 156.216 44.956 155.944C44.668 155.672 44.224 155.536 43.624 155.536H42.016V158.704ZM47.8168 159.688C47.8168 159.016 47.9528 158.428 48.2248 157.924C48.4968 157.412 48.8688 157.016 49.3408 156.736C49.8208 156.456 50.3528 156.316 50.9368 156.316C51.5128 156.316 52.0128 156.44 52.4368 156.688C52.8608 156.936 53.1768 157.248 53.3848 157.624V156.424H54.4888V163H53.3848V161.776C53.1688 162.16 52.8448 162.48 52.4128 162.736C51.9888 162.984 51.4928 163.108 50.9248 163.108C50.3408 163.108 49.8128 162.964 49.3408 162.676C48.8688 162.388 48.4968 161.984 48.2248 161.464C47.9528 160.944 47.8168 160.352 47.8168 159.688ZM53.3848 159.7C53.3848 159.204 53.2848 158.772 53.0848 158.404C52.8848 158.036 52.6128 157.756 52.2688 157.564C51.9328 157.364 51.5608 157.264 51.1528 157.264C50.7448 157.264 50.3728 157.36 50.0368 157.552C49.7008 157.744 49.4328 158.024 49.2328 158.392C49.0328 158.76 48.9328 159.192 48.9328 159.688C48.9328 160.192 49.0328 160.632 49.2328 161.008C49.4328 161.376 49.7008 161.66 50.0368 161.86C50.3728 162.052 50.7448 162.148 51.1528 162.148C51.5608 162.148 51.9328 162.052 52.2688 161.86C52.6128 161.66 52.8848 161.376 53.0848 161.008C53.2848 160.632 53.3848 160.196 53.3848 159.7ZM64.2422 156.304C64.7542 156.304 65.2102 156.412 65.6102 156.628C66.0102 156.836 66.3262 157.152 66.5582 157.576C66.7902 158 66.9062 158.516 66.9062 159.124V163H65.8262V159.28C65.8262 158.624 65.6622 158.124 65.3342 157.78C65.0142 157.428 64.5782 157.252 64.0262 157.252C63.4582 157.252 63.0062 157.436 62.6702 157.804C62.3342 158.164 62.1662 158.688 62.1662 159.376V163H61.0862V159.28C61.0862 158.624 60.9222 158.124 60.5942 157.78C60.2742 157.428 59.8382 157.252 59.2862 157.252C58.7182 157.252 58.2662 157.436 57.9302 157.804C57.5942 158.164 57.4262 158.688 57.4262 159.376V163H56.3342V156.424H57.4262V157.372C57.6422 157.028 57.9302 156.764 58.2902 156.58C58.6582 156.396 59.0622 156.304 59.5022 156.304C60.0542 156.304 60.5422 156.428 60.9662 156.676C61.3902 156.924 61.7062 157.288 61.9142 157.768C62.0982 157.304 62.4022 156.944 62.8262 156.688C63.2502 156.432 63.7222 156.304 64.2422 156.304ZM71.5654 163.108C70.9494 163.108 70.3894 162.968 69.8854 162.688C69.3894 162.408 68.9974 162.012 68.7094 161.5C68.4294 160.98 68.2894 160.38 68.2894 159.7C68.2894 159.028 68.4334 158.436 68.7214 157.924C69.0174 157.404 69.4174 157.008 69.9214 156.736C70.4254 156.456 70.9894 156.316 71.6134 156.316C72.2374 156.316 72.8014 156.456 73.3054 156.736C73.8094 157.008 74.2054 157.4 74.4934 157.912C74.7894 158.424 74.9374 159.02 74.9374 159.7C74.9374 160.38 74.7854 160.98 74.4814 161.5C74.1854 162.012 73.7814 162.408 73.2694 162.688C72.7574 162.968 72.1894 163.108 71.5654 163.108ZM71.5654 162.148C71.9574 162.148 72.3254 162.056 72.6694 161.872C73.0134 161.688 73.2894 161.412 73.4974 161.044C73.7134 160.676 73.8214 160.228 73.8214 159.7C73.8214 159.172 73.7174 158.724 73.5094 158.356C73.3014 157.988 73.0294 157.716 72.6934 157.54C72.3574 157.356 71.9934 157.264 71.6014 157.264C71.2014 157.264 70.8334 157.356 70.4974 157.54C70.1694 157.716 69.9054 157.988 69.7054 158.356C69.5054 158.724 69.4054 159.172 69.4054 159.7C69.4054 160.236 69.5014 160.688 69.6934 161.056C69.8934 161.424 70.1574 161.7 70.4854 161.884C70.8134 162.06 71.1734 162.148 71.5654 162.148ZM79.5772 156.304C80.3772 156.304 81.0252 156.548 81.5212 157.036C82.0172 157.516 82.2652 158.212 82.2652 159.124V163H81.1852V159.28C81.1852 158.624 81.0212 158.124 80.6932 157.78C80.3652 157.428 79.9172 157.252 79.3492 157.252C78.7732 157.252 78.3132 157.432 77.9692 157.792C77.6332 158.152 77.4652 158.676 77.4652 159.364V163H76.3732V156.424H77.4652V157.36C77.6812 157.024 77.9732 156.764 78.3412 156.58C78.7172 156.396 79.1292 156.304 79.5772 156.304ZM91.6522 163L89.6602 159.58H88.3402V163H87.2482V154.636H89.9482C90.5802 154.636 91.1122 154.744 91.5442 154.96C91.9842 155.176 92.3122 155.468 92.5282 155.836C92.7442 156.204 92.8522 156.624 92.8522 157.096C92.8522 157.672 92.6842 158.18 92.3482 158.62C92.0202 159.06 91.5242 159.352 90.8602 159.496L92.9602 163H91.6522ZM88.3402 158.704H89.9482C90.5402 158.704 90.9842 158.56 91.2802 158.272C91.5762 157.976 91.7242 157.584 91.7242 157.096C91.7242 156.6 91.5762 156.216 91.2802 155.944C90.9922 155.672 90.5482 155.536 89.9482 155.536H88.3402V158.704ZM95.113 155.356C94.905 155.356 94.729 155.284 94.585 155.14C94.441 154.996 94.369 154.82 94.369 154.612C94.369 154.404 94.441 154.228 94.585 154.084C94.729 153.94 94.905 153.868 95.113 153.868C95.313 153.868 95.481 153.94 95.617 154.084C95.761 154.228 95.833 154.404 95.833 154.612C95.833 154.82 95.761 154.996 95.617 155.14C95.481 155.284 95.313 155.356 95.113 155.356ZM95.641 156.424V163H94.549V156.424H95.641ZM97.0941 159.688C97.0941 159.016 97.2301 158.428 97.5021 157.924C97.7741 157.412 98.1461 157.016 98.6181 156.736C99.0981 156.456 99.6341 156.316 100.226 156.316C100.738 156.316 101.214 156.436 101.654 156.676C102.094 156.908 102.43 157.216 102.662 157.6V154.12H103.766V163H102.662V161.764C102.446 162.156 102.126 162.48 101.702 162.736C101.278 162.984 100.782 163.108 100.214 163.108C99.6301 163.108 99.0981 162.964 98.6181 162.676C98.1461 162.388 97.7741 161.984 97.5021 161.464C97.2301 160.944 97.0941 160.352 97.0941 159.688ZM102.662 159.7C102.662 159.204 102.562 158.772 102.362 158.404C102.162 158.036 101.89 157.756 101.546 157.564C101.21 157.364 100.838 157.264 100.43 157.264C100.022 157.264 99.6501 157.36 99.3141 157.552C98.9781 157.744 98.7101 158.024 98.5101 158.392C98.3101 158.76 98.2101 159.192 98.2101 159.688C98.2101 160.192 98.3101 160.632 98.5101 161.008C98.7101 161.376 98.9781 161.66 99.3141 161.86C99.6501 162.052 100.022 162.148 100.43 162.148C100.838 162.148 101.21 162.052 101.546 161.86C101.89 161.66 102.162 161.376 102.362 161.008C102.562 160.632 102.662 160.196 102.662 159.7ZM114.372 156.424L112.32 163H111.192L109.608 157.78L108.024 163H106.896L104.832 156.424H105.948L107.46 161.944L109.092 156.424H110.208L111.804 161.956L113.292 156.424H114.372ZM115.047 159.688C115.047 159.016 115.183 158.428 115.455 157.924C115.727 157.412 116.099 157.016 116.571 156.736C117.051 156.456 117.583 156.316 118.167 156.316C118.743 156.316 119.243 156.44 119.667 156.688C120.091 156.936 120.407 157.248 120.615 157.624V156.424H121.719V163H120.615V161.776C120.399 162.16 120.075 162.48 119.643 162.736C119.219 162.984 118.723 163.108 118.155 163.108C117.571 163.108 117.043 162.964 116.571 162.676C116.099 162.388 115.727 161.984 115.455 161.464C115.183 160.944 115.047 160.352 115.047 159.688ZM120.615 159.7C120.615 159.204 120.515 158.772 120.315 158.404C120.115 158.036 119.843 157.756 119.499 157.564C119.163 157.364 118.791 157.264 118.383 157.264C117.975 157.264 117.603 157.36 117.267 157.552C116.931 157.744 116.663 158.024 116.463 158.392C116.263 158.76 116.163 159.192 116.163 159.688C116.163 160.192 116.263 160.632 116.463 161.008C116.663 161.376 116.931 161.66 117.267 161.86C117.603 162.052 117.975 162.148 118.383 162.148C118.791 162.148 119.163 162.052 119.499 161.86C119.843 161.66 120.115 161.376 120.315 161.008C120.515 160.632 120.615 160.196 120.615 159.7ZM126.769 156.304C127.569 156.304 128.217 156.548 128.713 157.036C129.209 157.516 129.457 158.212 129.457 159.124V163H128.377V159.28C128.377 158.624 128.213 158.124 127.885 157.78C127.557 157.428 127.109 157.252 126.541 157.252C125.965 157.252 125.505 157.432 125.161 157.792C124.825 158.152 124.657 158.676 124.657 159.364V163H123.565V156.424H124.657V157.36C124.873 157.024 125.165 156.764 125.533 156.58C125.909 156.396 126.321 156.304 126.769 156.304Z" fill="white"/>
<path d="M253.016 25.524V28.32H256.064V29.22H253.016V32.1H256.424V33H251.924V24.624H256.424V25.524H253.016ZM257.668 29.688C257.668 29.016 257.804 28.428 258.076 27.924C258.348 27.412 258.72 27.016 259.192 26.736C259.672 26.456 260.208 26.316 260.8 26.316C261.312 26.316 261.788 26.436 262.228 26.676C262.668 26.908 263.004 27.216 263.236 27.6V24.12H264.34V33H263.236V31.764C263.02 32.156 262.7 32.48 262.276 32.736C261.852 32.984 261.356 33.108 260.788 33.108C260.204 33.108 259.672 32.964 259.192 32.676C258.72 32.388 258.348 31.984 258.076 31.464C257.804 30.944 257.668 30.352 257.668 29.688ZM263.236 29.7C263.236 29.204 263.136 28.772 262.936 28.404C262.736 28.036 262.464 27.756 262.12 27.564C261.784 27.364 261.412 27.264 261.004 27.264C260.596 27.264 260.224 27.36 259.888 27.552C259.552 27.744 259.284 28.024 259.084 28.392C258.884 28.76 258.784 29.192 258.784 29.688C258.784 30.192 258.884 30.632 259.084 31.008C259.284 31.376 259.552 31.66 259.888 31.86C260.224 32.052 260.596 32.148 261.004 32.148C261.412 32.148 261.784 32.052 262.12 31.86C262.464 31.66 262.736 31.376 262.936 31.008C263.136 30.632 263.236 30.196 263.236 29.7ZM266.75 25.356C266.542 25.356 266.366 25.284 266.222 25.14C266.078 24.996 266.006 24.82 266.006 24.612C266.006 24.404 266.078 24.228 266.222 24.084C266.366 23.94 266.542 23.868 266.75 23.868C266.95 23.868 267.118 23.94 267.254 24.084C267.398 24.228 267.47 24.404 267.47 24.612C267.47 24.82 267.398 24.996 267.254 25.14C267.118 25.284 266.95 25.356 266.75 25.356ZM267.278 26.424V33H266.186V26.424H267.278ZM270.471 27.324V31.2C270.471 31.52 270.539 31.748 270.675 31.884C270.811 32.012 271.047 32.076 271.383 32.076H272.187V33H271.203C270.595 33 270.139 32.86 269.835 32.58C269.531 32.3 269.379 31.84 269.379 31.2V27.324H268.527V26.424H269.379V24.768H270.471V26.424H272.187V27.324H270.471Z" fill="white"/>
<path d="M12 138C13.0568 136.705 16.5153 134.913 19.8777 136.506C23.3043 138.13 24.7457 136.669 25.9301 133.419C27.5633 128.937 32.9432 129.136 34 132.423" stroke="url(#paint3_linear_143_2)" stroke-width="2" stroke-linecap="round" stroke-linejoin="round"/>
<circle cx="259.5" cy="73.5" r="8.5" fill="url(#paint4_linear_143_2)"/>
<path d="M276.183 149.703L287.384 158.593L275.791 164.385L276.183 149.703Z" fill="url(#paint5_linear_143_2)"/>
<defs>
<linearGradient id="paint0_linear_143_2" x1="164.35" y1="-25.9625" x2="170.785" y2="300.193" gradientUnits="userSpaceOnUse">
<stop stop-color="#FD749B"/>
<stop offset="1" stop-color="#281AC8"/>
</linearGradient>
<linearGradient id="paint1_linear_143_2" x1="164.25" y1="-29.2778" x2="170.87" y2="300.418" gradientUnits="userSpaceOnUse">
<stop stop-color="#FD749B"/>
<stop offset="1" stop-color="#281AC8"/>
</linearGradient>
<linearGradient id="paint2_linear_143_2" x1="164.8" y1="133.759" x2="165.204" y2="215.328" gradientUnits="userSpaceOnUse">
<stop stop-color="#FD749B"/>
<stop offset="1" stop-color="#281AC8"/>
</linearGradient>
<linearGradient id="paint3_linear_143_2" x1="7.08724" y1="132.893" x2="10.0849" y2="144.29" gradientUnits="userSpaceOnUse">
<stop stop-color="#FC58B3"/>
<stop offset="1" stop-color="#FEAE68"/>
</linearGradient>
<linearGradient id="paint4_linear_143_2" x1="247.204" y1="71.1481" x2="259.5" y2="88.1481" gradientUnits="userSpaceOnUse">
<stop stop-color="#FC58B3"/>
<stop offset="1" stop-color="#FEAE68"/>
</linearGradient>
<linearGradient id="paint5_linear_143_2" x1="269.506" y1="158.277" x2="283.682" y2="165.682" gradientUnits="userSpaceOnUse">
<stop stop-color="#FC58B3"/>
<stop offset="1" stop-color="#FEAE68"/>
</linearGradient>
</defs>
</svg>
