<svg width="115" height="124" viewBox="0 0 115 124" fill="none" xmlns="http://www.w3.org/2000/svg">
<path opacity="0.253397" fill-rule="evenodd" clip-rule="evenodd" d="M20.3638 88.618C20.3638 88.618 20.935 85.4629 23.1812 92.8822C25.4274 100.301 50.8263 116.54 59.3284 103.389C67.8304 90.2381 79.8505 104.995 88.1538 101.048C96.457 97.1014 97.7722 91.8926 91.5832 79.3416C85.3942 66.7906 100.618 51.4967 85.4426 41.6642C70.2669 31.8318 82.0153 34.2473 82.0153 34.2473L81.938 74.39L61.6239 92.8069L20.3638 88.618Z" fill="url(#paint0_linear_53_397)"/>
<path opacity="0.518059" fill-rule="evenodd" clip-rule="evenodd" d="M80.5929 49.5462C80.5929 49.5462 78.8284 49.4435 82.7359 47.6932C86.6435 45.9429 93.8157 30.7466 86.0485 26.9222C78.2812 23.0979 85.5445 15.4258 82.8259 11.0866C80.1073 6.74742 77.169 6.37144 70.7197 10.6581C64.2704 14.9448 51.8285 3.4955 47.4719 12.584C43.1153 21.6725 50.5154 10.6381 50.5154 10.6381L68.6607 16.3464L80.1047 26.3673L80.5929 49.5462Z" fill="url(#paint1_linear_53_397)"/>
<circle cx="44.8541" cy="53.8248" r="39.8541" stroke="#FAA9C6" stroke-width="10"/>
<path d="M42.1566 14.0621C49.2976 13.5777 56.4373 15.0252 62.8257 18.2528C69.2141 21.4803 74.6155 26.3687 78.4624 32.4045C82.3093 38.4403 84.4597 45.4006 84.6879 52.5544C84.916 59.7082 83.2134 66.7914 79.7589 73.06C76.3044 79.3287 71.2255 84.5513 65.0558 88.1793C58.886 91.8074 51.853 93.707 44.6956 93.6785C37.5382 93.6501 30.5206 91.6946 24.3799 88.0176C18.2391 84.3407 13.2019 79.0778 9.79737 72.7819" stroke="url(#paint2_linear_53_397)" stroke-width="10" stroke-linecap="round"/>
<defs>
<linearGradient id="paint0_linear_53_397" x1="23.4264" y1="50.5373" x2="142.437" y2="94.5395" gradientUnits="userSpaceOnUse">
<stop stop-color="#FD749B"/>
<stop offset="1" stop-color="#281AC8"/>
</linearGradient>
<linearGradient id="paint1_linear_53_397" x1="58.7711" y1="50.2224" x2="75.3651" y2="-18.6748" gradientUnits="userSpaceOnUse">
<stop stop-color="#FD749B"/>
<stop offset="1" stop-color="#281AC8"/>
</linearGradient>
<linearGradient id="paint2_linear_53_397" x1="49.3395" y1="-5.15002" x2="54.4006" y2="153.766" gradientUnits="userSpaceOnUse">
<stop stop-color="#FD749B"/>
<stop offset="1" stop-color="#281AC8"/>
</linearGradient>
</defs>
</svg>
