<svg width="1025" height="325" viewBox="0 0 1025 325" fill="none" xmlns="http://www.w3.org/2000/svg">
<rect x="1" width="1023" height="324" rx="10" fill="#1E0338"/>
<g opacity="0.2">
<mask id="mask0_172_3" style="mask-type:alpha" maskUnits="userSpaceOnUse" x="0" y="-1" width="1025" height="326">
<rect x="0.5" y="-0.5" width="1024" height="325" rx="10.5" fill="url(#paint0_linear_172_3)" stroke="#F0F0F0"/>
</mask>
<g mask="url(#mask0_172_3)">
<path opacity="0.5" d="M651 220.862C389.4 230.862 108.667 275.028 1 295.862V331.362H1169C1105.33 290.362 912.6 210.862 651 220.862Z" fill="url(#paint1_linear_172_3)"/>
<path d="M21.9773 274.585L21.976 274.582C20.0802 270.98 19.5587 270.498 15.297 269.991L15.2961 269.991C11.6296 269.555 10.3033 271.584 10.0033 272.161C4.94626 282.845 -5.56083 304.404 -17.0602 324.205C-2.73629 306.438 13.5698 288.967 21.7631 280.389C22.6948 279.411 23.8518 278.146 21.9773 274.585Z" fill="#F2D422"/>
<path d="M13.3196 274.441C13.6195 273.863 14.946 271.835 18.6124 272.271L18.6133 272.271C19.5169 272.378 20.251 272.485 20.8671 272.62C19.6681 270.766 18.6184 270.385 15.2971 269.991L15.2962 269.99C11.6298 269.555 10.3035 271.583 10.0034 272.16C4.94641 282.845 -5.56069 304.403 -17.0601 324.205C-12.6576 318.744 -8.06797 313.312 -3.58413 308.157C3.6809 294.496 9.81172 281.852 13.3196 274.441Z" fill="#E8C018"/>
</g>
</g>
<path d="M471.125 117.25C470.758 117.25 470.432 117.016 470.315 116.668C468.673 111.805 467.445 110.576 462.582 108.935C462.234 108.818 462 108.492 462 108.125C462 107.758 462.234 107.431 462.582 107.314C467.444 105.673 468.673 104.444 470.314 99.5817C470.432 99.2341 470.758 99 471.125 99C471.492 99 471.818 99.2341 471.935 99.5817C473.576 104.444 474.805 105.673 479.668 107.314C480.015 107.432 480.25 107.758 480.25 108.125C480.25 108.492 480.016 108.818 479.668 108.935C474.805 110.576 473.576 111.805 471.935 116.668C471.818 117.016 471.492 117.25 471.125 117.25Z" fill="#FFD00D"/>
<path d="M628.688 62.2298C628.419 62.1151 628.253 61.8414 628.275 61.5501C628.593 57.4724 628.076 56.1878 625.025 53.4646C624.807 53.2698 624.737 52.9576 624.852 52.6885C624.967 52.4196 625.241 52.2537 625.532 52.2762C629.61 52.5937 630.894 52.0771 633.617 49.0258C633.812 48.8076 634.124 48.738 634.394 48.8528C634.663 48.9676 634.828 49.241 634.806 49.5328C634.489 53.6102 635.005 54.8948 638.056 57.6183C638.274 57.8128 638.344 58.1253 638.229 58.3942C638.114 58.6633 637.841 58.8289 637.549 58.8067C633.472 58.4895 632.187 59.0056 629.464 62.0571C629.269 62.2749 628.957 62.3445 628.688 62.2298Z" fill="white"/>
<path d="M955.844 296.688C955.569 296.688 955.324 296.512 955.236 296.251C954.005 292.604 953.083 291.683 949.436 290.452C949.176 290.364 949 290.119 949 289.844C949 289.569 949.176 289.324 949.436 289.236C953.083 288.005 954.005 287.083 955.236 283.436C955.324 283.176 955.569 283 955.844 283C956.119 283 956.364 283.176 956.452 283.436C957.683 287.083 958.604 288.005 962.251 289.236C962.512 289.324 962.688 289.569 962.688 289.844C962.688 290.119 962.512 290.364 962.251 290.452C958.604 291.683 957.683 292.604 956.452 296.251C956.364 296.512 956.119 296.688 955.844 296.688Z" fill="white"/>
<path d="M84.4817 121.086L80.1456 116.42L81.5315 110.203C81.6088 109.856 81.4823 109.495 81.2057 109.272C80.929 109.05 80.5496 109.003 80.227 109.153L74.4493 111.835L68.9645 108.595C68.3 108.203 67.4701 108.744 67.5629 109.511L68.3279 115.835L63.552 120.05C62.9735 120.561 63.2319 121.518 63.9902 121.666L70.2408 122.893C73.0006 129.26 72.7984 128.895 73.0451 129.094C73.196 129.215 73.3838 129.289 73.5848 129.299C73.9396 129.316 74.2738 129.131 74.4467 128.821L77.5447 123.255L83.8858 122.651C84.6543 122.579 85.0078 121.653 84.4817 121.086Z" fill="#FFA92C"/>
<path d="M71.5333 120.53L70.7683 114.206C70.6756 113.44 71.5046 112.897 72.17 113.29L77.6548 116.529L80.406 115.252L81.5315 110.203C81.6088 109.856 81.4823 109.495 81.2056 109.272C80.929 109.05 80.5496 109.003 80.227 109.153L74.4493 111.835L68.9645 108.595C68.3 108.203 67.4701 108.744 67.5629 109.511L68.3279 115.835L63.552 120.05C62.9735 120.561 63.2319 121.518 63.9902 121.666L69.1074 122.671L71.5333 120.53Z" fill="#FF8828"/>
<path d="M257 269C258.297 267.382 262.541 265.141 266.668 267.133C270.873 269.163 272.642 267.336 274.096 263.273C276.1 257.671 282.703 257.92 284 262.029" stroke="url(#paint2_linear_172_3)" stroke-width="3" stroke-linecap="round" stroke-linejoin="round"/>
<defs>
<linearGradient id="paint0_linear_172_3" x1="563.65" y1="-51" x2="569.445" y2="523.483" gradientUnits="userSpaceOnUse">
<stop stop-color="#FD749B"/>
<stop offset="1" stop-color="#281AC8"/>
</linearGradient>
<linearGradient id="paint1_linear_172_3" x1="643.4" y1="202.471" x2="644" y2="399.944" gradientUnits="userSpaceOnUse">
<stop stop-color="#FD749B"/>
<stop offset="1" stop-color="#281AC8"/>
</linearGradient>
<linearGradient id="paint2_linear_172_3" x1="250.971" y1="262.617" x2="254.778" y2="276.828" gradientUnits="userSpaceOnUse">
<stop stop-color="#FC58B3"/>
<stop offset="1" stop-color="#FEAE68"/>
</linearGradient>
</defs>
</svg>
