<svg width="1025" height="326" viewBox="0 0 1025 326" fill="none" xmlns="http://www.w3.org/2000/svg">
<rect x="0.5" y="0.5" width="1024" height="325" rx="10.5" fill="url(#paint0_linear_95_2)" stroke="#F0F0F0"/>
<mask id="mask0_95_2" style="mask-type:alpha" maskUnits="userSpaceOnUse" x="0" y="0" width="1025" height="326">
<rect x="0.5" y="0.5" width="1024" height="325" rx="10.5" fill="url(#paint1_linear_95_2)" stroke="#F0F0F0"/>
</mask>
<g mask="url(#mask0_95_2)">
<path opacity="0.5" d="M651 247.862C389.4 257.862 108.667 302.028 1 322.862V358.362H1169C1105.33 317.362 912.6 237.862 651 247.862Z" fill="url(#paint2_linear_95_2)"/>
<path d="M21.9778 301.585L21.9765 301.582C20.0807 297.98 19.5592 297.498 15.2974 296.991L15.2966 296.991C11.6301 296.555 10.3038 298.584 10.0038 299.161C4.94675 309.845 -5.56034 331.404 -17.0598 351.205C-2.73581 333.438 13.5703 315.967 21.7635 307.389C22.6953 306.411 23.8522 305.146 21.9778 301.585Z" fill="#F2D422"/>
<path d="M13.3201 301.441C13.62 300.863 14.9465 298.835 18.6129 299.271L18.6138 299.271C19.5173 299.378 20.2515 299.485 20.8676 299.62C19.6686 297.766 18.6189 297.385 15.2976 296.991L15.2967 296.99C11.6303 296.555 10.304 298.583 10.0039 299.16C4.9469 309.845 -5.5602 331.403 -17.0596 351.205C-12.6571 345.744 -8.06748 340.312 -3.58364 335.157C3.68139 321.496 9.81221 308.852 13.3201 301.441Z" fill="#E8C018"/>
</g>
<path d="M471.125 118.25C470.758 118.25 470.432 118.016 470.315 117.668C468.673 112.805 467.445 111.576 462.582 109.935C462.234 109.818 462 109.492 462 109.125C462 108.758 462.234 108.431 462.582 108.314C467.444 106.673 468.673 105.444 470.314 100.582C470.432 100.234 470.758 100 471.125 100C471.492 100 471.818 100.234 471.935 100.582C473.576 105.444 474.805 106.673 479.668 108.314C480.015 108.432 480.25 108.758 480.25 109.125C480.25 109.492 480.016 109.818 479.668 109.935C474.805 111.576 473.576 112.805 471.935 117.668C471.818 118.016 471.492 118.25 471.125 118.25Z" fill="#FFD00D"/>
<path d="M628.688 63.2298C628.42 63.1151 628.253 62.8414 628.276 62.5501C628.593 58.4724 628.077 57.1878 625.025 54.4646C624.808 54.2698 624.738 53.9576 624.853 53.6885C624.967 53.4196 625.241 53.2537 625.532 53.2762C629.61 53.5937 630.895 53.0771 633.618 50.0258C633.813 49.8076 634.125 49.738 634.394 49.8528C634.663 49.9676 634.829 50.241 634.806 50.5328C634.489 54.6102 635.006 55.8948 638.057 58.6183C638.275 58.8128 638.344 59.1253 638.23 59.3942C638.115 59.6633 637.841 59.8289 637.55 59.8067C633.472 59.4895 632.188 60.0056 629.465 63.0571C629.269 63.2749 628.957 63.3445 628.688 63.2298Z" fill="white"/>
<path d="M955.844 297.688C955.569 297.688 955.324 297.512 955.236 297.251C954.005 293.604 953.083 292.683 949.436 291.452C949.176 291.364 949 291.119 949 290.844C949 290.569 949.176 290.324 949.436 290.236C953.083 289.005 954.005 288.083 955.236 284.436C955.324 284.176 955.569 284 955.844 284C956.119 284 956.364 284.176 956.452 284.436C957.683 288.083 958.604 289.005 962.251 290.236C962.512 290.324 962.688 290.569 962.688 290.844C962.688 291.119 962.512 291.364 962.251 291.452C958.604 292.683 957.683 293.604 956.452 297.251C956.364 297.512 956.119 297.688 955.844 297.688Z" fill="white"/>
<path d="M84.4817 122.086L80.1456 117.42L81.5315 111.203C81.6088 110.856 81.4823 110.495 81.2057 110.272C80.929 110.05 80.5496 110.003 80.227 110.153L74.4493 112.835L68.9645 109.595C68.3 109.203 67.4701 109.744 67.5629 110.511L68.3279 116.835L63.552 121.05C62.9735 121.561 63.2319 122.518 63.9902 122.666L70.2408 123.893C73.0006 130.26 72.7984 129.895 73.0451 130.094C73.196 130.215 73.3838 130.289 73.5848 130.299C73.9396 130.316 74.2738 130.131 74.4467 129.821L77.5447 124.255L83.8858 123.651C84.6543 123.579 85.0078 122.653 84.4817 122.086Z" fill="#FFA92C"/>
<path d="M71.5333 121.53L70.7683 115.206C70.6756 114.44 71.5046 113.897 72.17 114.29L77.6548 117.529L80.406 116.252L81.5315 111.203C81.6088 110.856 81.4823 110.495 81.2056 110.272C80.929 110.05 80.5496 110.003 80.227 110.153L74.4493 112.835L68.9645 109.595C68.3 109.203 67.4701 109.744 67.5629 110.511L68.3279 116.835L63.552 121.05C62.9735 121.561 63.2319 122.518 63.9902 122.666L69.1074 123.671L71.5333 121.53Z" fill="#FF8828"/>
<path d="M257 270C258.297 268.382 262.541 266.141 266.668 268.133C270.873 270.163 272.642 268.336 274.096 264.273C276.1 258.671 282.703 258.92 284 263.029" stroke="url(#paint3_linear_95_2)" stroke-width="3" stroke-linecap="round" stroke-linejoin="round"/>
<defs>
<linearGradient id="paint0_linear_95_2" x1="563.65" y1="-50" x2="569.445" y2="524.483" gradientUnits="userSpaceOnUse">
<stop stop-color="#FD749B"/>
<stop offset="1" stop-color="#281AC8"/>
</linearGradient>
<linearGradient id="paint1_linear_95_2" x1="563.65" y1="-50" x2="569.445" y2="524.483" gradientUnits="userSpaceOnUse">
<stop stop-color="#FD749B"/>
<stop offset="1" stop-color="#281AC8"/>
</linearGradient>
<linearGradient id="paint2_linear_95_2" x1="643.4" y1="229.471" x2="644" y2="426.944" gradientUnits="userSpaceOnUse">
<stop stop-color="#FD749B"/>
<stop offset="1" stop-color="#281AC8"/>
</linearGradient>
<linearGradient id="paint3_linear_95_2" x1="250.971" y1="263.617" x2="254.778" y2="277.828" gradientUnits="userSpaceOnUse">
<stop stop-color="#FC58B3"/>
<stop offset="1" stop-color="#FEAE68"/>
</linearGradient>
</defs>
</svg>
