<svg width="16" height="16" viewBox="0 0 16 16" fill="none" xmlns="http://www.w3.org/2000/svg">
<g clip-path="url(#clip0_1_5800)">
<path d="M5.46376 3.01377L5.71364 2.58069C5.71587 2.58197 5.71742 2.5825 5.7184 2.58276C5.71946 2.58304 5.7206 2.5832 5.7219 2.5832C5.725 2.5832 5.72843 2.58231 5.73123 2.58073C5.73248 2.58002 5.73345 2.57927 5.73424 2.57849C5.73497 2.57778 5.73598 2.57662 5.73716 2.57458L5.73717 2.57455L6.45007 1.34036L5.46376 3.01377ZM5.46376 3.01377C5.54526 3.06079 5.63413 3.0832 5.7219 3.0832C5.90055 3.0832 6.07437 2.99046 6.17014 2.82464L5.46376 3.01377ZM5.46376 3.01377L5.71385 2.58081C5.70565 2.57607 5.70285 2.56562 5.70759 2.55742L5.7077 2.55724L5.81015 2.3797L6.42856 1.30809M5.46376 3.01377L6.42856 1.30809M6.42856 1.30809L6.44388 1.31694L6.44389 1.31694C6.44777 1.31918 6.45066 1.32287 6.45188 1.32742L6.45189 1.32749C6.45297 1.3315 6.4525 1.33612 6.4501 1.34031L6.42856 1.30809ZM6.33319 1.25301L5.2073 1.65949C2.85943 2.50715 1.0853 4.56361 0.641898 7.07846L6.33319 1.25301ZM6.33319 1.25301L5.20941 0.604009C5.20102 0.599167 5.19064 0.602037 5.18591 0.610158C5.18113 0.618437 5.18404 0.628862 5.1921 0.633519L5.19219 0.633568L5.32098 0.707963L6.25997 1.25034L5.23777 1.61226C2.85692 2.4552 1.0558 4.53382 0.608263 7.07254L0.608245 7.07264C0.391516 8.30061 0.502009 9.56586 0.92708 10.7311L0.457615 10.9024L0.927082 10.7311C0.928015 10.7337 0.928941 10.7351 0.929624 10.736C0.930406 10.737 0.931495 10.7381 0.933017 10.7391C0.936457 10.7415 0.940305 10.7425 0.943235 10.7425C0.944468 10.7425 0.946322 10.7423 0.948988 10.7413L6.33319 1.25301ZM0.959276 10.7194L0.95926 10.7194C0.535831 9.55878 0.426343 8.30007 0.641884 7.07854L0.959276 10.7194ZM0.959276 10.7194C0.962461 10.7282 0.958033 10.738 0.949001 10.7413L0.959276 10.7194Z" stroke="white"/>
<path d="M13.0298 12.8421L13.0298 12.8421C13.0224 12.8359 13.0117 12.8369 13.0057 12.8441L13.0057 12.8442C11.3867 14.7701 8.84532 15.6955 6.36956 15.2585C5.16777 15.0466 4.04711 14.5256 3.11473 13.7605L2.1559 12.9736L2.1554 14.2819V14.2819C2.15539 14.2913 2.16297 14.299 2.17251 14.299L13.0298 12.8421ZM13.0298 12.8421C13.0323 12.8442 13.0334 12.8458 13.034 12.8471C13.0349 12.8488 13.0356 12.851 13.0358 12.8537C13.0361 12.8564 13.0357 12.8587 13.0352 12.8605C13.0348 12.8618 13.034 12.8636 13.0319 12.8661L13.0319 12.8662C11.6723 14.4835 9.66229 15.3992 7.58639 15.3992C7.17983 15.3992 6.77087 15.364 6.36366 15.2922L6.36362 15.2922C5.12247 15.0733 3.96575 14.5262 3.01251 13.7202L2.1901 13.0249L2.18969 14.1018L2.18962 14.2819L13.0298 12.8421ZM1.65864 12.8038H1.6685H1.67247H2.1306H2.1307H2.15864V12.8038V12.8038V12.8038V12.8038V12.8038V12.8038V12.8038V12.8038V12.8038V12.8038V12.8038V12.8038V12.8038V12.8038V12.8038V12.8038V12.8038V12.8038V12.8038V12.8038V12.8038V12.8038V12.8038V12.8038V12.8038V12.8038V12.8038V12.8038V12.8038V12.8038V12.8038V12.8038V12.8038V12.8038V12.8038V12.8038V12.8038V12.8038V12.8038V12.8038V12.8038V12.8038V12.8038V12.8038V12.8038V12.8038V12.8038V12.8038V12.8038V12.8038V12.8038V12.8038V12.8038V12.8038V12.8038V12.8038V12.8038V12.8038V12.8038V12.8039V12.8039V12.8039V12.8039V12.8039V12.8039V12.8039V12.8039V12.8039V12.8039V12.8039V12.8039V12.8039V12.8039V12.8039V12.8039V12.8039V12.8039V12.8039V12.8039V12.8039V12.8039V12.8039V12.8039V12.8039V12.8039V12.8039V12.8039V12.8039V12.8039V12.8039V12.8039V12.8039V12.8039V12.8039V12.8039V12.8039V12.8039V12.8039V12.8039V12.8039V12.8039V12.8039V12.8039V12.8039V12.8039V12.8039V12.8039V12.8039V12.8039V12.8039V12.8039V12.8039V12.8039V12.8039V12.8039V12.8039V12.8039V12.8039V12.8039V12.8039V12.8039V12.8039V12.8039V12.8039V12.8039V12.8039V12.8039V12.8039V12.8039V12.8039V12.8039V12.8039V12.8039V12.8039V12.8039V12.8039V12.8039V12.8039V12.8039V12.8039V12.8039V12.8039V12.8039V12.8039V12.8039V12.8039V12.8039V12.8039V12.8039V12.8039V12.8039V12.8039V12.8039V12.8039V12.8039V12.8039V12.8039V12.8039V12.8039V12.8039V12.8039V12.8039V12.8039V12.8039V12.8039V12.8039V12.8039V12.8039V12.8039V12.8039V12.8039V12.8039V12.8039V12.8039V12.8039V12.8039V12.8039V12.8039V12.8039V12.8039V12.8039V12.8039V12.8039V12.804V12.804V12.804V12.804V12.804V12.804V12.804V12.804V12.804V12.804V12.804V12.804V12.804V12.804V12.804V12.804V12.804V12.804V12.804V12.804V12.804V12.804V12.804V12.804V12.804V12.804V12.804V12.804V12.804V12.804V12.804V12.804V12.804V12.804V12.804V12.804V12.804V12.804V12.804V12.804V12.804V12.804V12.804V12.804V12.804V12.804V12.804V12.804V12.804V12.804V12.804V12.804V12.804V12.804V12.804V12.804V12.804V12.804V12.804V12.804V12.804V12.804V12.804V12.804V12.804V12.804V12.804V12.804V12.804V12.804V12.804V12.804V12.804V12.804V12.804V12.804V12.804V12.804V12.804V12.804V12.804V12.804V12.804V12.804V12.804V12.804V12.804V12.804V12.804V12.804V12.804V12.804V12.804V12.804V12.804V12.804V12.804V12.804V12.804V12.804V12.804V12.804V12.804V12.804V12.804V12.804V12.804V12.804V12.804V12.804V12.804V12.804V12.804V12.804V12.804V12.804V12.804V12.804V12.804V12.804V12.804V12.804V12.804V12.804V12.8041V12.8041V12.8041V12.8041V12.8041V12.8041V12.8041V12.8041V12.8041V12.8041V12.8041V12.8041V12.8041V12.8041V12.8041V12.8041V12.8041V12.8041V12.8041V12.8041V12.8041V12.8041V12.8041V12.8041V12.8041V12.8041V12.8041V12.8041V12.8041V12.8041V12.8041V12.8041V12.8041V12.8041V12.8041V12.8041V12.8041V12.8041V12.8041V12.8041V12.8041V12.8041V12.8041V12.8041V12.8041V12.8041V12.8041V12.8041V12.8041V12.8041V12.8041V12.8041V12.8041V12.8041V12.8041V12.8041V12.8041V12.8041V12.8041V12.8041V12.8041V12.8041V12.8041V12.8041V12.8041V12.8041V12.8041V12.8041V12.8041V12.8041V12.8041V12.8041V12.8041V12.8041V12.8041V12.8041V12.8041V12.8041V12.8041V12.8041V12.8041V12.8041V12.8041V12.8041V12.8041V12.8041V12.8041V12.8041V12.8041V12.8041V12.8041V12.8041V12.8041V12.8041V12.8041V12.8041V12.8041V12.8041V12.8041V12.8041V12.8041V12.8041V12.8041V12.8041V12.8041V12.8041V12.8041V12.8041V12.8041V12.8041V12.8041V12.8041V12.8041V12.8041V12.8041V12.8041V12.8041V12.8041V12.8041V12.8041V12.8041V12.8041V12.8041V12.8042V12.8042V12.8042V12.8042V12.8042V12.8042V12.8042V12.8042V12.8042V12.8042V12.8042V12.8042V12.8042V12.8042V12.8042V12.8042V12.8042V12.8042V12.8042V12.8042V12.8042V12.8042V12.8042V12.8042V12.8042V12.8042V12.8042V12.8042V12.8042V12.8042V12.8042V12.8042V12.8042V12.8042V12.8042V12.8042V12.8042V12.8042V12.8042V12.8042V12.8042V12.8042V12.8042V12.8042V12.8042V12.8042V12.8042V12.8042V12.8042V12.8042V12.8042V12.8042V12.8042V12.8042V12.8042V12.8042V12.8042V12.8042V12.8042V12.8042V12.8042V12.8042V12.8042V12.8042V12.8042V12.8042V12.8042V12.8042V12.8042V12.8042V12.8042V12.8042V12.8042V12.8042V12.8042V12.8042V12.8042V12.8042V12.8042V12.8042V12.8042V12.8042V12.8286L2.15789 12.8362L2.15788 12.8363L2.15627 12.8528L2.15627 12.8528L2.15634 12.8535L2.15626 12.862L2.15619 12.862C2.15612 12.8646 2.15603 12.8671 2.15594 12.8694L2.15594 12.8739H3.43192H3.59829C3.60776 12.8739 3.6154 12.8663 3.6154 12.8568C3.6154 12.8473 3.60776 12.8397 3.59829 12.8397H2.2216H2.19804L2.17458 12.8375C2.17174 12.8372 2.16934 12.8376 2.1676 12.8381C2.16623 12.8385 2.16453 12.8392 2.16211 12.8413L2.16205 12.8413C2.15979 12.8432 2.15886 12.8446 2.15823 12.8458C2.15744 12.8473 2.15661 12.8497 2.1563 12.8528L2.15623 12.8535L2.15592 12.8565L2.1559 12.8567L2.15537 12.862L2.15527 12.863L2.15382 12.8731L2.1537 12.8739L1.8408 12.4582C1.73324 12.5483 1.67194 12.673 1.65884 12.8024L1.65864 12.8038ZM1.65864 12.8038V12.8042L2.04549 12.8591L2.02887 12.8567L2.02786 12.8565L1.99581 12.852L1.66779 12.8051L1.66153 12.8042L1.65864 12.8038ZM2.18962 14.2819C2.18959 14.2914 2.18192 14.299 2.17254 14.299L2.18962 14.2819Z" stroke="white"/>
<path d="M14.1145 11.2952L14.2439 10.8122C14.2395 10.811 14.2358 10.8081 14.2335 10.8041L13.5209 9.56953C13.5161 9.56116 13.5191 9.55074 13.5271 9.54611L13.5272 9.54602C13.53 9.5444 13.5319 9.54397 13.5333 9.5438C13.5351 9.54357 13.5375 9.54365 13.5401 9.54436C13.5427 9.54506 13.5448 9.54617 13.5463 9.5473C13.5475 9.5482 13.5489 9.54956 13.5506 9.55242L13.5506 9.55247L13.6264 9.68368L14.2721 10.8017L14.2569 10.8105L14.2569 10.8105C14.2543 10.812 14.2513 10.8128 14.2484 10.8128C14.2472 10.8128 14.2457 10.8127 14.2438 10.8122L14.1145 11.2952ZM14.1145 11.2952C14.1586 11.3069 14.2035 11.3128 14.2484 11.3128C14.3383 11.3128 14.4276 11.2893 14.5069 11.2435L13.8005 11.0542C13.8691 11.173 13.982 11.2596 14.1145 11.2952ZM15.4977 10.0742L15.4978 10.0743C15.5025 10.0824 15.4997 10.093 15.4914 10.0978L14.3344 10.7658L14.5519 9.51962C14.8754 7.66666 14.4593 5.79551 13.3802 4.2544C12.2989 2.71011 10.6786 1.67804 8.82216 1.35097C8.81292 1.34934 8.80669 1.34046 8.80833 1.33116L8.80837 1.33092C8.80994 1.32197 8.81863 1.31556 8.82822 1.31724C10.6955 1.64623 12.3205 2.68141 13.4081 4.23468C14.4958 5.78798 14.9129 7.66922 14.5836 9.53691L14.5835 9.53746C14.5802 9.55643 14.5783 9.56549 14.5755 9.57826C14.5729 9.59069 14.5695 9.60665 14.5633 9.63871L14.3565 10.7133L15.3043 10.1662L15.4744 10.0681L15.4745 10.068C15.4772 10.0664 15.4791 10.066 15.4806 10.0658C15.4824 10.0655 15.4848 10.0656 15.4874 10.0663C15.49 10.067 15.4921 10.0681 15.4936 10.0692C15.4947 10.0701 15.4961 10.0714 15.4977 10.0742Z" stroke="white"/>
</g>
<defs>
<clipPath id="clip0_1_5800">
<rect width="16" height="16" fill="white"/>
</clipPath>
</defs>
</svg>
